<?xml version="1.0" encoding="UTF-8" standalone="no"?>
<!-- Created with Inkscape (http://www.inkscape.org/) -->

<svg
   version="1.1"
   id="svg1"
   width="3340"
   height="3340"
   viewBox="0 0 3340 3340"
   sodipodi:docname="MLC_CROQUIS_1.svg"
   inkscape:version="1.4.3 (0d15f75, 2025-12-25)"
   xmlns:inkscape="http://www.inkscape.org/namespaces/inkscape"
   xmlns:sodipodi="http://sodipodi.sourceforge.net/DTD/sodipodi-0.dtd"
   xmlns="http://www.w3.org/2000/svg"
   xmlns:svg="http://www.w3.org/2000/svg">
  <defs
     id="defs1" />
  <sodipodi:namedview
     id="namedview1"
     pagecolor="#ffffff"
     bordercolor="#000000"
     borderopacity="0.25"
     inkscape:showpageshadow="2"
     inkscape:pageopacity="0.0"
     inkscape:pagecheckerboard="0"
     inkscape:deskcolor="#d1d1d1"
     inkscape:zoom="0.15292686"
     inkscape:cx="722.56766"
     inkscape:cy="1742.6632"
     inkscape:window-width="1920"
     inkscape:window-height="1017"
     inkscape:window-x="-8"
     inkscape:window-y="-8"
     inkscape:window-maximized="1"
     inkscape:current-layer="g1" />
  <g
     inkscape:groupmode="layer"
     inkscape:label="Image"
     id="g1">
    <path
       style="opacity:0.5;fill:#ffffff;stroke:#ffffff;stroke-width:5;stroke-linejoin:round;paint-order:markers fill stroke"
       d="m 1298.2307,2399.4085 c -472.11225,-32.2645 -591.17728,1037.4348 92.7308,695.4808 243.4615,-121.7308 456.3635,-681.0017 104.3221,-759.2332"
       id="path12"
       inkscape:label="1" />
    <path
       style="opacity:0.5;fill:#ffffff;stroke:#ffffff;stroke-width:5;stroke-linejoin:round;paint-order:markers fill stroke"
       d="m 2047.0307,1657.7055 c -67.6258,1.6949 -189.7214,-5.9989 -233.5951,57.3743 -165.5116,239.0722 -95.2674,357.2806 186.4662,372.9325 96.5542,5.3641 203.3818,24.3275 293.0184,-20.4908 39.3549,-19.6775 53.3112,-56.7082 51.227,-96.3068 -4.7818,-90.8557 -126.8007,-171.0655 -161.8773,-249.9877"
       id="path4"
       inkscape:label="2" />
    <path
       style="opacity:0.5;fill:#ffffff;stroke:#ffffff;stroke-width:5;stroke-linejoin:round;paint-order:markers fill stroke"
       d="m 2137.1902,1397.4724 c -301.1808,167.9514 12.6131,367.5412 241.7914,321.7055 137.2052,-27.441 55.3041,-221.3076 -36.8834,-252.0368 -34.4787,-11.4929 -69.3761,-24.2312 -102.454,-38.9325"
       id="path5"
       inkscape:label="3" />
    <path
       style="opacity:0.5;fill:#ffffff;stroke:#ffffff;stroke-width:5;stroke-linejoin:round;paint-order:markers fill stroke"
       d="m 2292.9202,1067.5706 c -67.6905,35.6094 -151.5956,278.7111 -88.1104,342.1963 36.0045,36.0045 130.7712,35.9525 180.319,45.0797 27.6797,5.0989 181.4531,49.0319 202.8589,20.4908 42.1858,-56.2477 -2.0401,-178.2549 -32.7852,-229.4969 -26.8287,-44.7145 -66.7737,-95.4608 -104.5031,-133.1902"
       id="path6"
       inkscape:label="4" />
    <path
       style="opacity:0.5;fill:#ffffff;stroke:#ffffff;stroke-width:5;stroke-linejoin:round;paint-order:markers fill stroke"
       d="m 2116.6994,729.47239 c 51.4807,12.31984 106.4964,8.19632 159.8282,8.19632 283.5891,0 -67.9888,455.01879 -79.9141,458.99389 -104.4072,34.8024 -118.8173,-141.6214 -110.6503,-206.95708"
       id="path7"
       inkscape:label="5" />
    <path
       style="opacity:0.5;fill:#ffffff;stroke:#ffffff;stroke-width:5;stroke-linejoin:round;paint-order:markers fill stroke"
       d="m 2030.638,952.82209 c -30.9986,6.48753 -53.329,28.72243 -77.865,45.07975 -315.4681,210.31206 222.7717,309.72626 139.3374,59.42336 -10.6817,-32.0454 12.6947,-56.674 -4.0981,-86.0614"
       id="path8"
       inkscape:label="6" />
    <path
       style="opacity:0.5;fill:#ffffff;stroke:#ffffff;stroke-width:5;stroke-linejoin:round;paint-order:markers fill stroke"
       d="m 2016.2945,948.72393 c 122.1529,-176.75523 -272.3538,-88.45806 -307.362,-18.44172 -57.2377,114.47549 58.5548,155.94719 149.5828,133.19019"
       id="path9"
       inkscape:label="7" />
    <path
       style="opacity:0.5;fill:#ffffff;stroke:#ffffff;stroke-width:5;stroke-linejoin:round;paint-order:markers fill stroke"
       d="m 1870.8098,856.51534 c 65.6621,-17.6945 129.4793,-40.75564 137.2884,-118.84663 2.5371,-25.3714 12.3611,-57.17412 4.0981,-81.96319 -24.7558,-74.26736 -280.3722,-131.31695 -346.2945,-98.35583 -91.6976,45.84882 -42.2423,194.92534 36.8835,221.30062 19.4369,6.47898 49.1245,56.30524 67.6196,71.71779"
       id="path10"
       inkscape:label="8" />
    <path
       style="opacity:0.5;fill:#ffffff;stroke:#ffffff;stroke-width:5;stroke-linejoin:round;paint-order:markers fill stroke"
       d="m 881.10429,204.90798 c -36.11126,203.76381 152.07461,384.74454 356.53991,297.11656 28.6537,-12.28017 72.2313,-16.90613 94.2576,-38.93252 34.0331,-34.03302 49.651,-95.0471 57.3743,-141.3865 C 1438.5165,26.263146 1167.1127,5.049158 952.82209,102.45399"
       id="path11"
       inkscape:label="9" />
  </g>
</svg>
